<?xml version="1.0" encoding="UTF-8"?>
<svg xmlns="http://www.w3.org/2000/svg" xmlns:xlink="http://www.w3.org/1999/xlink" width="136px" height="127px" viewBox="0 0 136 127" version="1.1">
<g id="surface1">
<path style=" stroke:none;fill-rule:nonzero;fill:rgb(0%,0%,0%);fill-opacity:1;" d="M 68.140625 127.261719 C 30.566406 127.261719 0 98.71875 0 63.632812 C 0 28.546875 30.566406 0 68.140625 0 C 105.714844 0 136.28125 28.546875 136.28125 63.632812 C 136.28125 98.71875 105.714844 127.261719 68.140625 127.261719 Z M 68.140625 7.699219 C 35.113281 7.699219 8.242188 32.789062 8.242188 63.632812 C 8.242188 94.472656 35.113281 119.5625 68.140625 119.5625 C 101.167969 119.5625 128.039062 94.472656 128.039062 63.632812 C 128.039062 32.789062 101.167969 7.699219 68.140625 7.699219 Z M 68.140625 7.699219 "/>
<path style=" stroke:none;fill-rule:nonzero;fill:rgb(0%,0%,0%);fill-opacity:1;" d="M 61.105469 49.292969 C 61.105469 53.898438 57.105469 57.632812 52.171875 57.632812 C 47.238281 57.632812 43.238281 53.898438 43.238281 49.292969 C 43.238281 44.683594 47.238281 40.949219 52.171875 40.949219 C 57.105469 40.949219 61.105469 44.683594 61.105469 49.292969 Z M 61.105469 49.292969 "/>
<path style=" stroke:none;fill-rule:nonzero;fill:rgb(0%,0%,0%);fill-opacity:1;" d="M 94.65625 49.292969 C 94.65625 53.898438 90.660156 57.632812 85.726562 57.632812 C 80.792969 57.632812 76.792969 53.898438 76.792969 49.292969 C 76.792969 44.683594 80.792969 40.949219 85.726562 40.949219 C 90.660156 40.949219 94.65625 44.683594 94.65625 49.292969 Z M 94.65625 49.292969 "/>
<path style=" stroke:none;fill-rule:nonzero;fill:rgb(0%,0%,0%);fill-opacity:1;" d="M 68.835938 93.167969 C 49.859375 93.167969 37.941406 81.363281 37.765625 81.183594 L 43.832031 75.972656 C 44.707031 76.851562 65.667969 97.261719 96.675781 75.507812 L 101.625 81.65625 C 89.347656 90.28125 78.226562 93.167969 68.835938 93.167969 Z M 68.835938 93.167969 "/>
</g>
</svg>
