<?xml version="1.0" encoding="UTF-8"?>
<svg xmlns="http://www.w3.org/2000/svg" xmlns:xlink="http://www.w3.org/1999/xlink" width="136px" height="127px" viewBox="0 0 136 127" version="1.1">
<defs>
<filter id="alpha" filterUnits="objectBoundingBox" x="0%" y="0%" width="100%" height="100%">
  <feColorMatrix type="matrix" in="SourceGraphic" values="0 0 0 0 1 0 0 0 0 1 0 0 0 0 1 0 0 0 1 0"/>
</filter>
<mask id="mask0">
  <g filter="url(#alpha)">
<rect x="0" y="0" width="136" height="127" style="fill:rgb(0%,0%,0%);fill-opacity:0.101961;stroke:none;"/>
  </g>
</mask>
<clipPath id="clip1">
  <rect x="0" y="0" width="136" height="127"/>
</clipPath>
<g id="surface5" clip-path="url(#clip1)">
<path style=" stroke:none;fill-rule:nonzero;fill:rgb(0.392157%,0.392157%,0.392157%);fill-opacity:1;" d="M 68.796875 74.949219 L 67.703125 72.898438 C 67.425781 72.386719 66.980469 71.972656 66.433594 71.714844 L 64.28125 70.710938 L 110.5 27.554688 L 115.292969 32.027344 Z M 68.796875 74.949219 "/>
</g>
<linearGradient id="linear0" gradientUnits="userSpaceOnUse" x1="10.134598" y1="13.865402" x2="16.870205" y2="20.601009" gradientTransform="matrix(5.666667,0,0,5.291667,0,0)">
<stop offset="0" style="stop-color:rgb(0.392157%,0.392157%,0.392157%);stop-opacity:0.101961;"/>
<stop offset="1" style="stop-color:rgb(0.392157%,0.392157%,0.392157%);stop-opacity:0;"/>
</linearGradient>
<mask id="mask1">
  <g filter="url(#alpha)">
<rect x="0" y="0" width="136" height="127" style="fill:rgb(0%,0%,0%);fill-opacity:0.101961;stroke:none;"/>
  </g>
</mask>
<clipPath id="clip2">
  <rect x="0" y="0" width="136" height="127"/>
</clipPath>
<g id="surface8" clip-path="url(#clip2)">
<path style=" stroke:none;fill-rule:nonzero;fill:rgb(0.392157%,0.392157%,0.392157%);fill-opacity:1;" d="M 43.585938 87.230469 L 63.582031 79.761719 L 64.558594 78.863281 L 63.054688 76.054688 L 58.234375 73.804688 C 57.957031 73.675781 57.8125 73.414062 57.597656 73.210938 L 43.085938 86.765625 Z M 43.585938 87.230469 "/>
</g>
<mask id="mask2">
  <g filter="url(#alpha)">
<rect x="0" y="0" width="136" height="127" style="fill:rgb(0%,0%,0%);fill-opacity:0.101961;stroke:none;"/>
  </g>
</mask>
<clipPath id="clip3">
  <rect x="0" y="0" width="136" height="127"/>
</clipPath>
<g id="surface11" clip-path="url(#clip3)">
<path style=" stroke:none;fill-rule:nonzero;fill:rgb(0.392157%,0.392157%,0.392157%);fill-opacity:1;" d="M 120.171875 14.78125 L 112.503906 21.941406 L 119.320312 28.308594 L 123.019531 24.898438 C 124.078125 23.90625 124.667969 22.578125 124.667969 21.167969 C 124.667969 19.753906 124.078125 18.425781 123.007812 17.425781 Z M 120.171875 14.78125 "/>
</g>
<linearGradient id="linear1" gradientUnits="userSpaceOnUse" x1="-0.767139" y1="6.308412" x2="19.638205" y2="15.823581" gradientTransform="matrix(5.666667,0,0,5.291667,0,0)">
<stop offset="0" style="stop-color:rgb(100%,100%,100%);stop-opacity:0.2;"/>
<stop offset="1" style="stop-color:rgb(100%,100%,100%);stop-opacity:0;"/>
</linearGradient>
</defs>
<g id="surface1">
<path style=" stroke:none;fill-rule:nonzero;fill:rgb(18.823529%,23.529412%,25.882353%);fill-opacity:1;" d="M 130.332031 21.167969 C 130.332031 18.339844 129.15625 15.683594 127.011719 13.683594 L 121.347656 8.390625 C 117.0625 4.390625 109.613281 4.382812 105.308594 8.402344 L 96.332031 16.882812 L 96.332031 15.875 C 96.332031 10.039062 91.695312 5.292969 86 5.292969 L 16 5.292969 C 10.304688 5.292969 5.667969 10.039062 5.667969 15.875 L 5.667969 111.125 C 5.667969 116.960938 10.304688 121.707031 16 121.707031 L 86 121.707031 C 91.695312 121.707031 96.332031 116.960938 96.332031 111.125 L 96.332031 56.96875 L 127.011719 28.648438 C 129.15625 26.648438 130.332031 23.992188 130.332031 21.167969 Z M 130.332031 21.167969 "/>
<path style=" stroke:none;fill-rule:nonzero;fill:rgb(100%,100%,100%);fill-opacity:1;" d="M 90.667969 111.125 C 90.667969 114.042969 88.570312 116.417969 86 116.417969 L 16 116.417969 C 13.429688 116.417969 11.332031 114.042969 11.332031 111.125 L 11.332031 15.875 C 11.332031 12.957031 13.429688 10.582031 16 10.582031 L 25.5 10.582031 L 25.5 16.6875 C 23.835938 17.613281 22.667969 19.234375 22.667969 21.167969 C 22.667969 24.082031 25.210938 26.457031 28.332031 26.457031 C 31.457031 26.457031 34 24.082031 34 21.167969 C 34 19.234375 32.828125 17.613281 31.167969 16.6875 L 31.167969 10.582031 L 48.167969 10.582031 L 48.167969 16.6875 C 46.503906 17.613281 45.332031 19.234375 45.332031 21.167969 C 45.332031 24.082031 47.875 26.457031 51 26.457031 C 54.125 26.457031 56.667969 24.082031 56.667969 21.167969 C 56.667969 19.234375 55.496094 17.613281 53.832031 16.6875 L 53.832031 10.582031 L 70.832031 10.582031 L 70.832031 16.6875 C 69.171875 17.613281 68 19.234375 68 21.167969 C 68 24.082031 70.542969 26.457031 73.667969 26.457031 C 76.789062 26.457031 79.332031 24.082031 79.332031 21.167969 C 79.332031 19.234375 78.164062 17.613281 76.5 16.6875 L 76.5 10.582031 L 86 10.582031 C 88.570312 10.582031 90.667969 12.957031 90.667969 15.875 L 90.667969 22.234375 L 46.152344 64.285156 C 45.886719 64.535156 45.675781 64.835938 45.535156 65.164062 L 34.203125 91.621094 C 33.78125 92.605469 34.027344 93.726562 34.832031 94.476562 C 35.371094 94.980469 36.097656 95.25 36.832031 95.25 C 37.1875 95.25 37.542969 95.1875 37.886719 95.0625 L 66.21875 84.476562 C 66.570312 84.347656 66.890625 84.148438 67.160156 83.902344 L 90.667969 62.203125 Z M 90.667969 111.125 "/>
<path style=" stroke:none;fill-rule:nonzero;fill:rgb(100%,79.607843%,16.078431%);fill-opacity:1;" d="M 68.796875 74.949219 L 67.703125 72.898438 C 67.425781 72.386719 66.980469 71.972656 66.433594 71.714844 L 64.28125 70.710938 L 110.5 27.554688 L 115.292969 32.027344 Z M 68.796875 74.949219 "/>
<use xlink:href="#surface5" mask="url(#mask0)"/>
<path style=" stroke:none;fill-rule:nonzero;fill:rgb(100%,79.607843%,16.078431%);fill-opacity:1;" d="M 60.277344 66.972656 L 59.199219 64.960938 C 58.71875 64.066406 57.738281 63.5 56.667969 63.5 L 54.953125 63.5 L 101.699219 19.335938 L 106.492188 23.8125 Z M 60.277344 66.972656 "/>
<path style=" stroke:none;fill-rule:nonzero;fill:rgb(98.039216%,98.431373%,98.431373%);fill-opacity:1;" d="M 43.585938 87.230469 L 42.585938 86.296875 L 50.085938 68.792969 L 54.914062 68.792969 L 56.964844 72.621094 C 57.238281 73.132812 57.683594 73.546875 58.234375 73.804688 L 63.054688 76.054688 L 64.558594 78.863281 L 63.582031 79.761719 Z M 43.585938 87.230469 "/>
<path style=" stroke:none;fill-rule:nonzero;fill:rgb(82.745098%,18.039216%,18.039216%);fill-opacity:1;" d="M 123.019531 24.898438 L 119.320312 28.308594 L 105.683594 15.574219 L 109.328125 12.132812 C 111.46875 10.132812 115.199219 10.132812 117.339844 12.132812 L 123.007812 17.425781 C 124.078125 18.425781 124.667969 19.753906 124.667969 21.167969 C 124.667969 22.578125 124.078125 23.90625 123.019531 24.898438 Z M 123.019531 24.898438 "/>
<path style=" stroke:none;fill-rule:nonzero;fill:url(#linear0);" d="M 90.667969 111.125 L 90.667969 62.203125 L 67.160156 83.902344 C 66.890625 84.148438 66.570312 84.347656 66.21875 84.476562 L 37.886719 95.0625 C 37.542969 95.1875 37.1875 95.25 36.832031 95.25 C 36.097656 95.25 35.371094 94.980469 34.832031 94.476562 L 58.328125 116.417969 L 86 116.417969 C 88.570312 116.417969 90.667969 114.042969 90.667969 111.125 Z M 90.667969 111.125 "/>
<use xlink:href="#surface8" mask="url(#mask1)"/>
<use xlink:href="#surface11" mask="url(#mask2)"/>
<path style=" stroke:none;fill-rule:nonzero;fill:url(#linear1);" d="M 130.332031 21.167969 C 130.332031 18.339844 129.15625 15.683594 127.011719 13.683594 L 121.347656 8.390625 C 117.0625 4.390625 109.613281 4.382812 105.308594 8.402344 L 96.332031 16.882812 L 96.332031 15.875 C 96.332031 10.039062 91.695312 5.292969 86 5.292969 L 16 5.292969 C 10.304688 5.292969 5.667969 10.039062 5.667969 15.875 L 5.667969 111.125 C 5.667969 116.960938 10.304688 121.707031 16 121.707031 L 86 121.707031 C 91.695312 121.707031 96.332031 116.960938 96.332031 111.125 L 96.332031 56.96875 L 127.011719 28.648438 C 129.15625 26.648438 130.332031 23.992188 130.332031 21.167969 Z M 130.332031 21.167969 "/>
</g>
</svg>
