<?xml version="1.0" encoding="UTF-8"?>
<svg xmlns="http://www.w3.org/2000/svg" xmlns:xlink="http://www.w3.org/1999/xlink" width="136px" height="127px" viewBox="0 0 136 127" version="1.1">
<g id="surface1">
<path style=" stroke:none;fill-rule:nonzero;fill:rgb(0%,0%,0%);fill-opacity:1;" d="M 120.0625 0 L 15.9375 0 C 7.136719 0 0 6.664062 0 14.882812 L 0 78.949219 C 0 87.167969 7.136719 93.832031 15.9375 93.832031 L 40.671875 93.832031 C 41.257812 93.832031 41.734375 94.273438 41.734375 94.824219 L 41.734375 120.054688 C 41.734375 122.863281 43.546875 125.398438 46.328125 126.472656 C 49.105469 127.546875 52.304688 126.953125 54.433594 124.964844 L 87.453125 94.128906 C 87.65625 93.941406 87.925781 93.839844 88.207031 93.839844 L 120.082031 93.839844 C 128.886719 93.839844 136.019531 87.179688 136.019531 78.957031 L 136.019531 14.882812 C 136.019531 10.933594 134.339844 7.144531 131.347656 4.351562 C 128.351562 1.558594 124.292969 -0.00390625 120.0625 0 Z M 129.625 78.949219 C 129.625 83.878906 125.34375 87.878906 120.0625 87.878906 L 88.1875 87.878906 C 86.222656 87.863281 84.332031 88.578125 82.929688 89.863281 L 49.9375 120.75 C 49.632812 121.035156 49.175781 121.121094 48.777344 120.96875 C 48.378906 120.8125 48.117188 120.449219 48.121094 120.042969 L 48.121094 94.824219 C 48.121094 90.988281 44.789062 87.878906 40.683594 87.878906 L 15.9375 87.878906 C 10.65625 87.878906 6.375 83.878906 6.375 78.949219 L 6.375 14.882812 C 6.375 9.949219 10.65625 5.953125 15.9375 5.953125 L 120.0625 5.953125 C 125.34375 5.953125 129.625 9.949219 129.625 14.882812 Z M 129.625 78.949219 "/>
</g>
</svg>
